<svg width="16" height="16" viewBox="0 0 16 16" fill="none" xmlns="http://www.w3.org/2000/svg">
<path d="M8 1C4.13906 1 1 4.13906 1 8C1 11.8609 4.13906 15 8 15C11.8609 15 15 11.8609 15 8C15 4.13906 11.8609 1 8 1Z" fill="black"/>
<path d="M10.1991 7.317C10.5855 7.37645 10.853 7.55479 11.0016 7.79258C11.1503 8.03038 11.2394 8.44651 11.2394 8.98154C11.2394 10.0516 10.9125 10.9433 10.2586 11.627C9.60462 12.3106 8.77235 12.6673 7.76174 12.6673C6.97216 12.6673 6.24074 12.3887 5.65133 11.8648C4.96571 11.2477 4.38121 9.99284 4.9974 9.13016C5.14602 8.92209 5.41354 8.8032 5.7405 8.71403C5.68106 8.56541 5.62161 8.44651 5.59188 8.32761C5.48423 8.00464 5.585 7.74002 5.82968 7.49534C6.04338 7.28164 6.32807 7.12644 6.63222 7.22783C6.7214 7.25755 6.81057 7.28728 6.92946 7.37645C6.66195 6.48473 6.39443 5.74163 6.24581 5.23632C6.09719 4.73101 6.03774 4.40405 6.03774 4.19598C6.03774 3.72983 6.31343 3.33398 6.81057 3.33398C7.37532 3.33398 7.57058 4.14085 8.2964 6.02798C8.41359 6.33267 8.50483 6.5739 8.56428 6.75224C8.62373 6.63335 8.68318 6.42528 8.77235 6.18749C9.39655 4.40405 9.77633 3.60306 10.3003 3.54361C10.507 3.52015 10.7341 3.57178 10.8828 3.7204C11.0016 3.86902 11.1225 4.0792 11.0908 4.31488C10.9409 5.43033 10.5356 6.40837 10.1991 7.317ZM5.62161 9.93271C5.68106 9.99216 5.77023 10.1111 5.8594 10.2597C6.12692 10.6461 6.39443 10.8542 6.63222 10.8542C6.99016 10.8542 6.93634 10.499 6.81057 10.2894C6.59854 9.93602 6.32917 9.59994 6.03774 9.30851C5.78474 9.11875 5.56803 9.13026 5.35409 9.39768C4.92843 9.92975 5.30309 10.7699 5.68106 11.2108C5.94857 11.5081 6.24581 11.7756 6.63222 11.9539C7.01864 12.1323 7.40505 12.2215 7.88063 12.2215C8.7129 12.2215 9.39655 11.9242 9.96131 11.3C10.5261 10.6758 10.7936 9.90299 10.7936 8.95182C10.7936 8.65458 10.7639 8.44651 10.7341 8.26817C10.6468 7.74399 9.93523 7.62384 9.51545 7.52507C9.01014 7.40617 8.47511 7.34672 7.94008 7.34672C7.69589 7.34672 7.52394 7.44186 7.52394 7.70341C7.52394 8.00065 7.67256 8.20872 7.99953 8.32761C8.32649 8.44651 8.86152 8.53568 9.5749 8.53568C9.80206 8.53568 10.148 8.58267 10.0505 8.8032C9.97165 8.98154 9.38406 9.09495 9.09931 9.30851C8.65578 9.6042 8.23732 10.1814 8.23732 10.7353C8.23732 11.0741 8.54502 11.6675 8.41566 11.7162C7.89837 11.9106 7.82118 10.7513 7.82118 10.4975C7.68515 10.6335 7.51906 10.6178 7.37532 10.5569C7.37532 10.8183 7.45448 11.0128 7.2267 11.2406C6.84815 11.6191 6.27587 11.3271 5.94857 11.0325C5.68106 10.765 5.5158 10.5149 5.5158 10.2474C5.5158 10.1346 5.53892 10.0154 5.62161 9.93271ZM7.76174 9.99216C8.09197 9.66192 7.4201 8.64743 7.2267 8.35734C7.01703 7.99041 6.60083 7.49701 6.18636 7.91148C5.94348 8.15436 6.06758 8.43685 6.18636 8.71403C6.30526 8.92209 6.42416 9.13016 6.6025 9.36795C6.78724 9.61427 7.37406 10.3798 7.76174 9.99216ZM8.17787 6.99004L7.4645 4.99853C7.28615 4.49322 7.16726 4.13653 7.04836 3.98791C6.84872 3.65517 6.42416 3.71215 6.42416 4.13653C6.42416 4.3446 6.51333 4.67156 6.66195 5.14715C6.81057 5.62273 7.04836 6.28189 7.2964 7.07486C7.41383 6.84 7.97606 6.9564 8.17787 6.99004ZM8.89125 8.92209C8.56379 8.92209 8.18582 8.86583 7.88063 8.74375C7.99172 9.02147 8.11873 9.28034 8.17787 9.57602C8.37518 9.31295 8.63067 9.11753 8.89125 8.92209ZM9.75324 7.1981C10.0505 6.42528 10.2586 5.77135 10.4369 5.26604C10.5855 4.76074 10.6747 4.4635 10.6747 4.3446C10.6747 3.85453 10.2243 3.89931 10.0208 4.25543C9.90186 4.4635 9.75324 4.76074 9.60462 5.2066L8.9507 7.04948L9.75324 7.1981Z" fill="white"/>
</svg>
